#include "pitchesE.h"

// ------ Buzzer Pin ------
#define BUZZER 16

// ------ Melody Welcome Song ------
int melody_Welcome[] = {
  NOTE_F5, NOTE_FS5, NOTE_G5, NOTE_G5, NOTE_GS5, NOTE_A5, NOTE_B5
};

int durations_Welcome[] = {
  32, 32, 32, 32, 32, 16, 8
};

// ------Melody Mario Song ------
int melody_mario_bros[] = {
  NOTE_E5, NOTE_E5, REST, NOTE_E5, REST, NOTE_C5, NOTE_E5,
  NOTE_G5, REST, NOTE_G4, REST, 
  NOTE_C5, NOTE_G4, REST, NOTE_E4,
  NOTE_A4, NOTE_B4, NOTE_AS4, NOTE_A4,
  NOTE_G4, NOTE_E5, NOTE_G5, NOTE_A5, NOTE_F5, NOTE_G5,
  REST, NOTE_E5,NOTE_C5, NOTE_D5, NOTE_B4,
  NOTE_C5, NOTE_G4, REST, NOTE_E4,
  NOTE_A4, NOTE_B4, NOTE_AS4, NOTE_A4,
  NOTE_G4, NOTE_E5, NOTE_G5, NOTE_A5, NOTE_F5, NOTE_G5,
  REST, NOTE_E5,NOTE_C5, NOTE_D5, NOTE_B4,
  
  REST, NOTE_G5, NOTE_FS5, NOTE_F5, NOTE_DS5, NOTE_E5,
  REST, NOTE_GS4, NOTE_A4, NOTE_C4, REST, NOTE_A4, NOTE_C5, NOTE_D5,
  REST, NOTE_DS5, REST, NOTE_D5,
  NOTE_C5, REST,
  
  REST, NOTE_G5, NOTE_FS5, NOTE_F5, NOTE_DS5, NOTE_E5,
  REST, NOTE_GS4, NOTE_A4, NOTE_C4, REST, NOTE_A4, NOTE_C5, NOTE_D5,
  REST, NOTE_DS5, REST, NOTE_D5,
  NOTE_C5, REST,
  
  NOTE_C5, NOTE_C5, NOTE_C5, REST, NOTE_C5, NOTE_D5,
  NOTE_E5, NOTE_C5, NOTE_A4, NOTE_G4,
  
  NOTE_C5, NOTE_C5, NOTE_C5, REST, NOTE_C5, NOTE_D5, NOTE_E5,
  REST, 
  NOTE_C5, NOTE_C5, NOTE_C5, REST, NOTE_C5, NOTE_D5,
  NOTE_E5, NOTE_C5, NOTE_A4, NOTE_G4,
  NOTE_E5, NOTE_E5, REST, NOTE_E5, REST, NOTE_C5, NOTE_E5,
  NOTE_G5, REST, NOTE_G4, REST, 
  NOTE_C5, NOTE_G4, REST, NOTE_E4,
  
  NOTE_A4, NOTE_B4, NOTE_AS4, NOTE_A4,
  NOTE_G4, NOTE_E5, NOTE_G5, NOTE_A5, NOTE_F5, NOTE_G5,
  REST, NOTE_E5, NOTE_C5, NOTE_D5, NOTE_B4,
  
  NOTE_C5, NOTE_G4, REST, NOTE_E4,
  NOTE_A4, NOTE_B4, NOTE_AS4, NOTE_A4,
  NOTE_G4, NOTE_E5, NOTE_G5, NOTE_A5, NOTE_F5, NOTE_G5,
  REST, NOTE_E5, NOTE_C5, NOTE_D5, NOTE_B4,
  
  NOTE_E5, NOTE_C5, NOTE_G4, REST, NOTE_GS4,
  NOTE_A4, NOTE_F5, NOTE_F5, NOTE_A4,
  NOTE_D5, NOTE_A5, NOTE_A5, NOTE_A5, NOTE_G5, NOTE_F5,
  
  NOTE_E5, NOTE_C5, NOTE_A4, NOTE_G4,
  NOTE_E5, NOTE_C5, NOTE_G4, REST, NOTE_GS4,
  NOTE_A4, NOTE_F5, NOTE_F5, NOTE_A4,
  NOTE_B4, NOTE_F5, NOTE_F5, NOTE_F5, NOTE_E5, NOTE_D5,
  NOTE_C5, NOTE_E4, NOTE_E4, NOTE_C4,
  
  NOTE_E5, NOTE_C5, NOTE_G4, REST, NOTE_GS4,
  NOTE_A4, NOTE_F5, NOTE_F5, NOTE_A4,
  NOTE_D5, NOTE_A5, NOTE_A5, NOTE_A5, NOTE_G5, NOTE_F5,
  
  NOTE_E5, NOTE_C5, NOTE_A4, NOTE_G4,
  NOTE_E5, NOTE_C5, NOTE_G4, REST, NOTE_GS4,
  NOTE_A4, NOTE_F5, NOTE_F5, NOTE_A4,
  NOTE_B4, NOTE_F5, NOTE_F5, NOTE_F5, NOTE_E5, NOTE_D5,
  NOTE_C5, NOTE_E4, NOTE_E4, NOTE_C4,
  NOTE_C5, NOTE_C5, NOTE_C5, REST, NOTE_C5, NOTE_D5, NOTE_E5,
  REST,
  
  NOTE_C5, NOTE_C5, NOTE_C5, REST, NOTE_C5, NOTE_D5,
  NOTE_E5, NOTE_C5, NOTE_A4, NOTE_G4,
  NOTE_E5, NOTE_E5, REST, NOTE_E5, REST, NOTE_C5, NOTE_E5,
  NOTE_G5, REST, NOTE_G4, REST, 
  NOTE_E5, NOTE_C5, NOTE_G4, REST, NOTE_GS4,
  NOTE_A4, NOTE_F5, NOTE_F5, NOTE_A4,
  NOTE_D5, NOTE_A5, NOTE_A5, NOTE_A5, NOTE_G5, NOTE_F5,
  
  NOTE_E5, NOTE_C5, NOTE_A4, NOTE_G4,
  NOTE_E5, NOTE_C5, NOTE_G4, REST, NOTE_GS4,
  NOTE_A4, NOTE_F5, NOTE_F5, NOTE_A4,
  NOTE_B4, NOTE_F5, NOTE_F5, NOTE_F5, NOTE_E5, NOTE_D5,
  NOTE_C5, NOTE_E4, NOTE_E4, NOTE_C4,
  
  // Game over sound
  NOTE_C5, NOTE_G4, NOTE_E4,
  NOTE_A4, NOTE_B4, NOTE_A4, NOTE_GS4, NOTE_AS4, NOTE_GS4,
  NOTE_G4, NOTE_D4, NOTE_E4
};

int durations_mario_bros[] = {
  8, 8, 8, 8, 8, 8, 8,
  4, 4, 8, 4, 
  4, 8, 4, 4,
  4, 4, 8, 4,
  8, 8, 8, 4, 8, 8,
  8, 4,8, 8, 4,
  4, 8, 4, 4,
  4, 4, 8, 4,
  8, 8, 8, 4, 8, 8,
  8, 4,8, 8, 4,
  

  4, 8, 8, 8, 4, 8,
  8, 8, 8, 8, 8, 8, 8, 8,
  4, 4, 8, 4,
  2, 2,
  
  4, 8, 8, 8, 4, 8,
  8, 8, 8, 8, 8, 8, 8, 8,
  4, 4, 8, 4,
  2, 2,
  
  8, 4, 8, 8, 8, 4,
  8, 4, 8, 2,
  
  8, 4, 8, 8, 8, 8, 8,
  1, 
  8, 4, 8, 8, 8, 4,
  8, 4, 8, 2,
  8, 8, 8, 8, 8, 8, 4,
  4, 4, 4, 4, 
  4, 8, 4, 4,
  
  4, 4, 8, 4,
  8, 8, 8, 4, 8, 8,
  8, 4, 8, 8, 4,
  
  4, 8, 4, 4,
  4, 4, 8, 4,
  8, 8, 8, 4, 8, 8,
  8, 4, 8, 8, 4,
  
  8, 4, 8, 4, 4,
  8, 4, 8, 2,
  8, 8, 8, 8, 8, 8,
  
  8, 4, 8, 2,
  8, 4, 8, 4, 4,
  8, 4, 8, 2,
  8, 4, 8, 8, 8, 8,
  8, 4, 8, 2,
  
  8, 4, 8, 4, 4,
  8, 4, 8, 2,
  8, 8, 8, 8, 8, 8,
  
  8, 4, 8, 2,
  8, 4, 8, 4, 4,
  8, 4, 8, 2,
  8, 4, 8, 8, 8, 8,
  8, 4, 8, 2,
  8, 4, 8, 8, 8, 8, 8,
  1,
  
  8, 4, 8, 8, 8, 4,
  8, 4, 8, 2,
  8, 8, 8, 8, 8, 8, 4,
  4, 4, 4, 4, 
  8, 4, 8, 4, 4,
  8, 4, 8, 2,
  8, 8, 8, 8, 8, 8,
  
  8, 4, 8, 2,
  8, 4, 8, 4, 4,
  8, 4, 8, 2,
  8, 4, 8, 8, 8, 8,
  8, 4, 8, 2,
  
  //game over sound
  4, 4, 4,
  8, 8, 8, 8, 8, 8,
  8, 8, 2
};

// ------ Melody Pacman Song ------
int melody_Pacman[] = {
  NOTE_B4, NOTE_B5, NOTE_FS5, NOTE_DS5,
  NOTE_B5, NOTE_FS5, NOTE_DS5, NOTE_C5,
  NOTE_C6, NOTE_G6, NOTE_E6, NOTE_C6, NOTE_G6, NOTE_E6,
  
  NOTE_B4, NOTE_B5, NOTE_FS5, NOTE_DS5, NOTE_B5,
  NOTE_FS5, NOTE_DS5, NOTE_DS5, NOTE_E5, NOTE_F5,
  NOTE_F5, NOTE_FS5, NOTE_G5, NOTE_G5, NOTE_GS5, NOTE_A5, NOTE_B5
};

int durations_Pacman[] = {
  16, 16, 16, 16,
  32, 16, 8, 16,
  16, 16, 16, 32, 16, 8,
  
  16, 16, 16, 16, 32,
  16, 8, 32, 32, 32,
  32, 32, 32, 32, 32, 16, 8
};

// ------ Melody HBD ------
int melody_HBD[] = {
  NOTE_C4, NOTE_C4, 
  NOTE_D4, NOTE_C4, NOTE_F4,
  NOTE_E4, NOTE_C4, NOTE_C4, 
  NOTE_D4, NOTE_C4, NOTE_G4,
  NOTE_F4, NOTE_C4, NOTE_C4,
  
  NOTE_C5, NOTE_A4, NOTE_F4, 
  NOTE_E4, NOTE_D4, NOTE_AS4, NOTE_AS4,
  NOTE_A4, NOTE_F4, NOTE_G4,
  NOTE_F4
};

int durations_HBD[] = {
  4, 8, 
  4, 4, 4,
  2, 4, 8, 
  4, 4, 4,
  2, 4, 8,
  
  4, 4, 4, 
  4, 4, 4, 8,
  4, 4, 4,
  2
};

// ------ Melody Xmas ------
int melody_Xmas[] = {
  NOTE_E5, NOTE_E5, NOTE_E5,
  NOTE_E5, NOTE_E5, NOTE_E5,
  NOTE_E5, NOTE_G5, NOTE_C5, NOTE_D5,
  NOTE_E5,
  NOTE_F5, NOTE_F5, NOTE_F5, NOTE_F5,
  NOTE_F5, NOTE_E5, NOTE_E5, NOTE_E5, NOTE_E5,
  NOTE_E5, NOTE_D5, NOTE_D5, NOTE_E5,
  NOTE_D5, NOTE_G5
};

int durations_Xmas[] = {
  8, 8, 4,
  8, 8, 4,
  8, 8, 8, 8,
  2,
  8, 8, 8, 8,
  8, 8, 8, 16, 16,
  8, 8, 8, 8,
  4, 4
};


// ------Fucntion Welcome Song ------
void welcomeSong()
{
  int size = sizeof(durations_Welcome) / sizeof(int);

  for (int note = 0; note < size; note++) {
    //to calculate the note duration, take one second divided by the note type.
    //e.g. quarter note = 1000 / 4, eighth note = 1000/8, etc.
    int duration = 1000 / durations_Welcome[note];
    tone(BUZZER, melody_Welcome[note], duration);

    //to distinguish the notes, set a minimum time between them.
    //the note's duration + 30% seems to work well:
    int pauseBetweenNotes = duration * 2.20;
    delay(pauseBetweenNotes);
    
    //stop the tone playing:
    noTone(BUZZER);
  }
}

// ------Fucntion Mario Song ------
void marioSong()
{
  int size = sizeof(durations_mario_bros) / sizeof(int);

  for (int note = 0; note < size; note++) {
    //to calculate the note duration, take one second divided by the note type.
    //e.g. quarter note = 1000 / 4, eighth note = 1000/8, etc.
    int duration = 1000 / durations_mario_bros[note];
    tone(BUZZER, melody_mario_bros[note], duration);

    //to distinguish the notes, set a minimum time between them.
    //the note's duration + 30% seems to work well:
    int pauseBetweenNotes = duration * 1.40;
    delay(pauseBetweenNotes);
    
    //stop the tone playing:
    noTone(BUZZER);
  }
}

// ------Fucntion Pacman Song ------
void pacmanSong()
{
  int size = sizeof(durations_Pacman) / sizeof(int);
  
  for (int note = 0; note < size; note++) {
    //to calculate the note duration, take one second divided by the note type.
    //e.g. quarter note = 1000 / 4, eighth note = 1000/8, etc.
    int duration = 1000 / durations_Pacman[note];
    tone(BUZZER, melody_Pacman[note], duration);

    //to distinguish the notes, set a minimum time between them.
    //the note's duration + 30% seems to work well:
    int pauseBetweenNotes = duration * 2.20;
    delay(pauseBetweenNotes);
    
    //stop the tone playing:
    noTone(BUZZER);
  }
}

// ------Fucntion HBD Song ------
void happyBirthDaySong()
{
  int size = sizeof(durations_HBD) / sizeof(int);

  for (int note = 0; note < size; note++) {
    //to calculate the note duration, take one second divided by the note type.
    //e.g. quarter note = 1000 / 4, eighth note = 1000/8, etc.
    int duration = 1000 / durations_HBD[note];
    tone(BUZZER, melody_HBD[note], duration);

    //to distinguish the notes, set a minimum time between them.
    //the note's duration + 30% seems to work well:
    int pauseBetweenNotes = duration * 1.80;
    delay(pauseBetweenNotes);
    
    //stop the tone playing:
    noTone(BUZZER);
  }
}

// ------Fucntion Xmas Song ------
void christmasSong()
{
  int size = sizeof(durations_Xmas) / sizeof(int);

  for (int note = 0; note < size; note++) {
    //to calculate the note duration, take one second divided by the note type.
    //e.g. quarter note = 1000 / 4, eighth note = 1000/8, etc.
    int duration = 1000 / durations_Xmas[note];
    tone(BUZZER, melody_Xmas[note], duration);

    //to distinguish the notes, set a minimum time between them.
    //the note's duration + 30% seems to work well:
    int pauseBetweenNotes = duration * 1.60;
    delay(pauseBetweenNotes);
    
    //stop the tone playing:
    noTone(BUZZER);
  }
}
// ------Fucntion Beep ------
void beep(){
	tone(BUZZER,500,100);
	noTone(BUZZER);
	delay(200);
}
